<svg width="32" height="32" viewBox="0 0 32 32" fill="none" xmlns="http://www.w3.org/2000/svg">
<path d="M29.3331 7.83998C28.3331 8.33298 27.3331 8.50698 26.1601 8.66698C27.3331 7.99998 28.1601 6.99998 28.4931 5.66698C27.4881 6.27498 26.3171 6.73798 25.0701 6.98898L25.0001 7.00098C23.9691 5.98698 22.5601 5.35498 21.0041 5.33398H21.0001C18.1601 5.33398 15.6671 7.84098 15.6671 10.841C15.6671 11.334 15.6671 11.668 15.8401 12.001C11.2621 11.823 7.22109 9.66398 4.52909 6.36198L4.50709 6.33398C4.08209 7.05998 3.83109 7.93198 3.83109 8.86298C3.83109 8.97198 3.83409 9.08098 3.84109 9.18898L3.84009 9.17398C3.87409 11.052 4.84909 12.695 6.31309 13.655L6.33409 13.668C5.49409 13.668 4.66709 13.335 3.82709 13.001C3.82709 15.668 5.66709 17.841 8.16009 18.334C7.66709 18.507 7.16009 18.507 6.66709 18.507C6.33409 18.507 6.00009 18.507 5.66709 18.334C6.33409 20.507 8.33409 22.174 10.8401 22.174C9.04009 23.629 6.72409 24.509 4.20309 24.509C4.13209 24.509 4.06109 24.508 3.99009 24.507H4.00109H2.66809C5.03309 26.016 7.90409 26.936 10.9841 27H11.0011C21.0011 27 26.5081 18.667 26.5081 11.493V10.826C27.6551 10.036 28.6011 9.03898 29.3111 7.88198L29.3351 7.83998H29.3331Z" fill="black"/>
</svg>
